# xmcd
#
# Track frame offsets:
# 150
# 14287
# 37247
# 58292
# 72615
# 89982
# 102150
# 115697
# 130225
# 142425
# 160700
# 175225
# 187897
# 204795
# 217150
# 240032
# 256760
# 276967
# 291212
# 308435
#
# Disc length: 4284 seconds
#
#
# Revision: 1
# Processed by: cddbd v1.5.1PL2 Copyright (c) Steve Scherf et al.
# Submitted via: FreeRIP 2.945 
#
DISCID=2d10ba14
DTITLE=Disco I - Romance Instrumental
DYEAR=2000
DGENRE=Ballad
TTITLE0=Only You
TTITLE1=Besame Mucho
TTITLE2=Amor Eterno
TTITLE3=Release Me
TTITLE4=No se Tu
TTITLE5=Come Prima
TTITLE6=Maria de Amor sin Barreras
TTITLE7=Oh My Papa
TTITLE8=Humo en tus Ojos
TTITLE9=Vaya con Dios
TTITLE10=Acercate Más
TTITLE11=Solo Tengo Ojos Para Ti
TTITLE12=some Enchanted Evening
TTITLE13=To Know Him Is to Love Him
TTITLE14=Abrazame
TTITLE15=Placer de Amor
TTITLE16=Me Olvide de Vivir
TTITLE17=Are You Lonesome Tonight?
TTITLE18=Este Terco Corazón
TTITLE19=Je t'aime, Moi non plus (Yo te Amo, Yo Tampoco)
EXTD=
EXTT0=
EXTT1=
EXTT2=
EXTT3=
EXTT4=
EXTT5=
EXTT6=
EXTT7=
EXTT8=
EXTT9=
EXTT10=
EXTT11=
EXTT12=
EXTT13=
EXTT14=
EXTT15=
EXTT16=
EXTT17=
EXTT18=
EXTT19=
PLAYORDER=
